<svg width="112" height="112" viewBox="0 0 112 112" fill="none" xmlns="http://www.w3.org/2000/svg">
<g clip-path="url(#clip0)">
<path d="M56 112C86.9279 112 112 86.9279 112 56C112 25.0721 86.9279 0 56 0C25.0721 0 0 25.0721 0 56C0 86.9279 25.0721 112 56 112Z" fill="#F6F3ED"/>
<path d="M80.8114 27.5626C82.2735 27.5626 83.4587 28.7478 83.4587 30.2099C83.4587 31.6719 82.2735 32.8571 80.8114 32.8571C80.6162 32.8571 80.466 32.8569 80.0969 32.8562C76.203 32.8492 74.2421 32.9321 71.7708 33.3245C68.4704 33.8485 65.4694 34.8725 62.6261 36.5721C60.8763 37.6182 59.201 38.9148 57.5958 40.4931C51.9691 46.0254 47.5245 53.2505 44.2709 62.1979L43.3662 64.6858L38.3904 62.8765L39.2951 60.3886C42.8072 50.7303 47.6671 42.8302 53.8838 36.7177C55.788 34.8454 57.7973 33.2903 59.9095 32.0277C63.3646 29.9623 67.0039 28.7205 70.9406 28.0954C73.771 27.6461 75.9437 27.5542 80.1065 27.5617C80.4723 27.5624 80.6206 27.5626 80.8114 27.5626ZM83.524 42.1213C83.524 43.5833 82.3388 44.7686 80.8767 44.7686H77.0418C70.2519 44.7686 64.7618 47.5896 60.7589 52.4437C57.5388 56.3485 55.5977 61.3657 55.5977 64.752V67.3992H50.3032V64.752C50.3032 60.088 52.6989 53.8957 56.6741 49.0752C61.644 43.0485 68.6004 39.474 77.0418 39.474H80.8767C82.3388 39.474 83.524 40.6592 83.524 42.1213Z" fill="#0E0D10"/>
<g filter="url(#filter0_d)">
<path d="M52.9504 27.5613H53.6123C55.0743 27.5613 56.2595 28.7465 56.2595 30.2086V86.9043C56.2595 88.3664 55.0743 89.5516 53.6123 89.5516H52.9504C51.4884 89.5516 50.3032 88.3664 50.3032 86.9043V30.2086C50.3032 28.7465 51.4884 27.5613 52.9504 27.5613ZM41.0377 28.0025H41.6995C43.1616 28.0025 44.3468 29.1877 44.3468 30.6498V87.3455C44.3468 88.8076 43.1616 89.9928 41.6995 89.9928H41.0377C39.5757 89.9928 38.3904 88.8076 38.3904 87.3455V30.6498C38.3904 29.1877 39.5757 28.0025 41.0377 28.0025Z" fill="#0E0D10"/>
</g>
</g>
<defs>
<filter id="filter0_d" x="30.3904" y="17.5613" width="37.8691" height="82.4315" filterUnits="userSpaceOnUse" color-interpolation-filters="sRGB">
<feFlood flood-opacity="0" result="BackgroundImageFix"/>
<feColorMatrix in="SourceAlpha" type="matrix" values="0 0 0 0 0 0 0 0 0 0 0 0 0 0 0 0 0 0 127 0"/>
<feOffset dx="2"/>
<feGaussianBlur stdDeviation="5"/>
<feColorMatrix type="matrix" values="0 0 0 0 1 0 0 0 0 1 0 0 0 0 1 0 0 0 0.5 0"/>
<feBlend mode="normal" in2="BackgroundImageFix" result="effect1_dropShadow"/>
<feBlend mode="normal" in="SourceGraphic" in2="effect1_dropShadow" result="shape"/>
</filter>
<clipPath id="clip0">
<rect width="112" height="112" fill="white"/>
</clipPath>
</defs>
</svg>
