<svg width="113" height="112" viewBox="0 0 113 112" fill="none" xmlns="http://www.w3.org/2000/svg">
<g clip-path="url(#clip0)">
<path d="M92.3764 12.5564C68.4825 -7.08087 33.1936 -3.6302 13.5564 20.2637C-6.08088 44.1575 -2.63021 79.4465 21.2636 99.0837C45.1575 118.721 80.4464 115.27 100.084 91.3764C119.721 67.4826 116.27 32.1936 92.3764 12.5564Z" fill="url(#paint0_linear)"/>
<path d="M80.8115 27.5626C82.2736 27.5626 83.4588 28.7478 83.4588 30.2098C83.4588 31.6719 82.2736 32.8571 80.8115 32.8571C80.6163 32.8571 80.4661 32.8569 80.097 32.8562C76.2031 32.8492 74.2422 32.9321 71.7709 33.3245C68.4705 33.8485 65.4695 34.8725 62.6262 36.5721C60.8764 37.6181 59.2011 38.9148 57.5959 40.493C51.9693 46.0254 47.5246 53.2505 44.271 62.1979L43.3663 64.6858L38.3906 62.8765L39.2952 60.3886C42.8073 50.7303 47.6672 42.8302 53.8839 36.7177C55.7882 34.8454 57.7974 33.2903 59.9096 32.0277C63.3647 29.9622 67.004 28.7205 70.9407 28.0954C73.7711 27.646 75.9438 27.5541 80.1067 27.5617C80.4724 27.5624 80.6207 27.5626 80.8115 27.5626ZM83.5241 42.1213C83.5241 43.5833 82.3389 44.7686 80.8768 44.7686H77.0419C70.252 44.7686 64.7619 47.5896 60.759 52.4437C57.539 56.3485 55.5978 61.3657 55.5978 64.7519V67.3992H50.3033V64.7519C50.3033 60.088 52.699 53.8957 56.6742 49.0752C61.6441 43.0485 68.6005 39.474 77.0419 39.474H80.8768C82.3389 39.474 83.5241 40.6592 83.5241 42.1213Z" fill="#F6F7F9"/>
<g filter="url(#filter0_d)">
<path d="M52.9506 27.5613H53.6124C55.0744 27.5613 56.2597 28.7465 56.2597 30.2086V86.9043C56.2597 88.3664 55.0744 89.5516 53.6124 89.5516H52.9506C51.4885 89.5516 50.3033 88.3664 50.3033 86.9043V30.2086C50.3033 28.7465 51.4885 27.5613 52.9506 27.5613ZM41.0378 28.0025H41.6997C43.1617 28.0025 44.3469 29.1877 44.3469 30.6498V87.3455C44.3469 88.8076 43.1617 89.9928 41.6997 89.9928H41.0378C39.5758 89.9928 38.3906 88.8076 38.3906 87.3455V30.6498C38.3906 29.1877 39.5758 28.0025 41.0378 28.0025Z" fill="white"/>
</g>
</g>
<defs>
<filter id="filter0_d" x="22.3906" y="9.56128" width="53.8691" height="98.4315" filterUnits="userSpaceOnUse" color-interpolation-filters="sRGB">
<feFlood flood-opacity="0" result="BackgroundImageFix"/>
<feColorMatrix in="SourceAlpha" type="matrix" values="0 0 0 0 0 0 0 0 0 0 0 0 0 0 0 0 0 0 127 0"/>
<feOffset dx="2"/>
<feGaussianBlur stdDeviation="9"/>
<feColorMatrix type="matrix" values="0 0 0 0 0.050414 0 0 0 0 0.0217014 0 0 0 0 0.208333 0 0 0 1 0"/>
<feBlend mode="normal" in2="BackgroundImageFix" result="effect1_dropShadow"/>
<feBlend mode="normal" in="SourceGraphic" in2="effect1_dropShadow" result="shape"/>
</filter>
<linearGradient id="paint0_linear" x1="21.2637" y1="99.0837" x2="92.3764" y2="12.5564" gradientUnits="userSpaceOnUse">
<stop stop-color="#282347"/>
<stop offset="0.258647" stop-color="#1B1632"/>
<stop offset="0.904617" stop-color="#141123"/>
</linearGradient>
<clipPath id="clip0">
<rect width="113" height="112" fill="white"/>
</clipPath>
</defs>
</svg>
