<svg width="24" height="24" viewBox="0 0 25 25" fill="none" xmlns="http://www.w3.org/2000/svg">
<path fill-rule="evenodd" clip-rule="evenodd" d="M0.5 16.6725V12.5C0.5 5.87257 5.87257 0.5 12.5 0.5C15.7689 0.5 18.7326 1.80711 20.8969 3.92718L18.3457 5.52123C16.7642 4.19508 14.7255 3.39654 12.5 3.39654C7.4723 3.39654 3.39654 7.4723 3.39654 12.5H6.2931L0.5 16.6725ZM6.61026 19.4417C8.19785 20.7901 10.254 21.6036 12.5001 21.6036C17.5277 21.6036 21.6036 17.5277 21.6036 12.5001H18.707L24.4998 8.25872L24.5 12.5001C24.5 19.1275 19.1275 24.5002 12.5001 24.5002C9.21084 24.5002 6.23071 23.1767 4.06306 21.0333L6.61026 19.4417ZM17.1034 16.4828H13.7931L12.5001 14.736L11.207 16.4828H7.89668L10.8958 12.5688L7.8966 8.51735H11L12.5001 10.475L14.0001 8.51737H17.1036L14.1044 12.5688L17.1034 16.4828Z" fill="white"/>
</svg>
