<svg width="20" height="20" viewBox="0 0 20 20" fill="none" xmlns="http://www.w3.org/2000/svg">
<path fill-rule="evenodd" clip-rule="evenodd" d="M3.3 0H16.7C17.83 0 18.75 0.92 18.75 2.06V20L16.6 18.1L15.39 16.98L14.11 15.79L14.64 17.64H3.3C2.17 17.64 1.25 16.72 1.25 15.58V2.06C1.25 0.92 2.17 0 3.3 0ZM12.18 12.25C12.48 12.63 12.84 13.06 12.84 13.06C15.05 12.99 15.9 11.54 15.9 11.54C15.9 8.32 14.46 5.71 14.46 5.71C13.02 4.63 11.65 4.66 11.65 4.66L11.51 4.82C13.21 5.34 14 6.09 14 6.09C12.96 5.52 11.94 5.24 10.99 5.13C10.27 5.05 9.58 5.07 8.97 5.15C8.91762 5.15 8.87286 5.15762 8.82242 5.16621C8.81508 5.16746 8.80762 5.16873 8.8 5.17C8.45 5.2 7.6 5.33 6.53 5.8C6.16 5.97 5.94 6.09 5.94 6.09C5.94 6.09 6.77 5.3 8.57 4.78L8.47 4.66C8.47 4.66 7.1 4.63 5.66 5.71C5.66 5.71 4.22 8.32 4.22 11.54C4.22 11.54 5.06 12.99 7.27 13.06C7.27 13.06 7.64 12.61 7.94 12.23C6.67 11.85 6.19 11.05 6.19 11.05C6.19 11.05 6.29 11.12 6.47 11.22C6.48 11.23 6.49 11.24 6.51 11.25C6.525 11.26 6.54 11.2675 6.555 11.275C6.57 11.2825 6.585 11.29 6.6 11.3C6.85 11.44 7.1 11.55 7.33 11.64C7.74 11.8 8.23 11.96 8.8 12.07C9.55 12.21 10.43 12.26 11.39 12.08C11.86 12 12.34 11.86 12.84 11.65C13.19 11.52 13.58 11.33 13.99 11.06C13.99 11.06 13.49 11.88 12.18 12.25ZM7.17002 9.5C7.17002 8.89 7.62002 8.39 8.19002 8.39C8.76002 8.39 9.22002 8.89 9.21002 9.5C9.21002 10.11 8.76002 10.61 8.19002 10.61C7.63002 10.61 7.17002 10.11 7.17002 9.5ZM10.82 9.5C10.82 8.89 11.27 8.39 11.84 8.39C12.41 8.39 12.86 8.89 12.86 9.5C12.86 10.11 12.41 10.61 11.84 10.61C11.28 10.61 10.82 10.11 10.82 9.5Z" fill="#7289DA"/>
</svg>
