<svg width="94" height="28" viewBox="0 0 94 28" fill="none" xmlns="http://www.w3.org/2000/svg">
<g filter="url(#filter0_i)">
<path fill-rule="evenodd" clip-rule="evenodd" d="M40 19.8285V8.577H44.4189C47.7563 8.577 49.6857 10.5965 49.6857 14.1209C49.6857 17.7778 47.7797 19.8285 44.4189 19.8285H40ZM44.0454 10.5887H42.3495V17.8168H44.0454C46.1226 17.8168 47.2896 16.538 47.2896 14.1598C47.2896 11.883 46.0837 10.5887 44.0454 10.5887ZM53.311 19.8285H50.7749L54.3613 14.1599L50.7982 8.57701H53.56L55.9017 12.5146H56.0417L58.4067 8.57701H61.0363L57.3409 14.1988L60.9818 19.8285H58.3056L55.8939 16.0156H55.7539L53.311 19.8285Z" fill="#37474F"/>
</g>
<g filter="url(#filter1_i)">
<path fill-rule="evenodd" clip-rule="evenodd" d="M68.6214 18.4795C68.1391 19.4152 67.1589 19.9688 65.9764 19.9688C63.8214 19.9688 62.4755 18.269 62.4755 15.5556C62.4755 12.8577 63.8292 11.1579 65.9764 11.1579C67.1433 11.1579 68.108 11.7193 68.5592 12.655H68.6915V8H70.6208V19.8285H68.7537V18.4795H68.6214ZM68.7148 15.5634C68.7148 13.8635 67.8979 12.8031 66.5754 12.8031C65.2606 12.8031 64.4515 13.848 64.4515 15.5634C64.4515 17.2865 65.2528 18.3236 66.5754 18.3236C67.9057 18.3236 68.7148 17.2788 68.7148 15.5634ZM75.9655 18.4484C75.1097 18.4484 74.4951 18.0195 74.4951 17.3022C74.4951 16.6082 75.0008 16.2183 76.0822 16.1482L78.0037 16.0234V16.7018C78.0037 17.692 77.1324 18.4484 75.9655 18.4484ZM75.3975 19.9688C76.51 19.9688 77.4436 19.4854 77.9182 18.6589H78.0504V19.8285H79.9098V14.0039C79.9098 12.1949 78.6806 11.1267 76.4945 11.1267C74.4718 11.1267 73.0636 12.0858 72.908 13.5907H74.7285C74.9074 13.0137 75.5142 12.7018 76.4011 12.7018C77.4436 12.7018 78.0037 13.1696 78.0037 14.0039V14.7213L75.8099 14.8538C73.7405 14.9786 72.5813 15.8675 72.5813 17.4113C72.5813 18.9708 73.756 19.9688 75.3975 19.9688ZM85.9079 20C88.4518 20 90 18.3314 90 15.5634C90 12.8031 88.4441 11.1267 85.9079 11.1267C83.3795 11.1267 81.8158 12.8109 81.8158 15.5634C81.8158 18.3314 83.3561 20 85.9079 20ZM85.9079 18.3782C84.562 18.3782 83.7918 17.3489 83.7918 15.5634C83.7918 13.7856 84.562 12.7485 85.9079 12.7485C87.246 12.7485 88.0162 13.7856 88.0162 15.5634C88.0162 17.3489 87.2538 18.3782 85.9079 18.3782Z" fill="#5F6C72"/>
</g>
<circle cx="14" cy="14" r="14" fill="url(#paint0_radial)"/>
<g filter="url(#filter2_d)">
<path d="M6.87236 6.87238C9.88625 3.85848 14.3339 3.15212 18.0198 4.75328L16.0963 6.67676C13.5237 5.94286 10.6405 6.58884 8.61467 8.61468C5.93704 11.2923 5.67002 15.4677 7.81362 18.4441L10.6738 15.5839L12.4161 17.3262L7.79622 21.9461C7.47591 21.6954 7.16727 21.4226 6.87236 21.1276C2.93588 17.1912 2.93588 10.8089 6.87236 6.87238Z" fill="white"/>
<path d="M9.9802 23.2467C13.6661 24.8479 18.1137 24.1415 21.1276 21.1276C25.0641 17.1912 25.0641 10.8089 21.1276 6.87238C20.8327 6.57747 20.5241 6.30465 20.2038 6.05392L15.5839 10.6738L17.3262 12.4161L20.1864 9.55594C22.33 12.5323 22.063 16.7077 19.3853 19.3853C17.3595 21.4112 14.4763 22.0572 11.9037 21.3233L9.9802 23.2467Z" fill="white"/>
<path d="M15.7423 14L14 12.2577L12.2577 14L14 15.7423L15.7423 14Z" fill="white"/>
<path d="M10.6738 8.93147L12.4161 10.6738L10.6738 12.4161L8.93146 10.6738L10.6738 8.93147Z" fill="white"/>
<path d="M19.0685 17.3262L17.3262 15.5839L15.5839 17.3262L17.3262 19.0686L19.0685 17.3262Z" fill="white"/>
</g>
<defs>
<filter id="filter0_i" x="40" y="8.577" width="21.0363" height="11.2515" filterUnits="userSpaceOnUse" color-interpolation-filters="sRGB">
<feFlood flood-opacity="0" result="BackgroundImageFix"/>
<feBlend mode="normal" in="SourceGraphic" in2="BackgroundImageFix" result="shape"/>
<feColorMatrix in="SourceAlpha" type="matrix" values="0 0 0 0 0 0 0 0 0 0 0 0 0 0 0 0 0 0 127 0" result="hardAlpha"/>
<feOffset/>
<feGaussianBlur stdDeviation="0.5"/>
<feComposite in2="hardAlpha" operator="arithmetic" k2="-1" k3="1"/>
<feColorMatrix type="matrix" values="0 0 0 0 0 0 0 0 0 0 0 0 0 0 0 0 0 0 0.15 0"/>
<feBlend mode="normal" in2="shape" result="effect1_innerShadow"/>
</filter>
<filter id="filter1_i" x="62.4755" y="8" width="27.5245" height="12" filterUnits="userSpaceOnUse" color-interpolation-filters="sRGB">
<feFlood flood-opacity="0" result="BackgroundImageFix"/>
<feBlend mode="normal" in="SourceGraphic" in2="BackgroundImageFix" result="shape"/>
<feColorMatrix in="SourceAlpha" type="matrix" values="0 0 0 0 0 0 0 0 0 0 0 0 0 0 0 0 0 0 127 0" result="hardAlpha"/>
<feOffset/>
<feGaussianBlur stdDeviation="0.5"/>
<feComposite in2="hardAlpha" operator="arithmetic" k2="-1" k3="1"/>
<feColorMatrix type="matrix" values="0 0 0 0 0 0 0 0 0 0 0 0 0 0 0 0 0 0 0.15 0"/>
<feBlend mode="normal" in2="shape" result="effect1_innerShadow"/>
</filter>
<filter id="filter2_d" x="1.92" y="1.92001" width="24.16" height="24.16" filterUnits="userSpaceOnUse" color-interpolation-filters="sRGB">
<feFlood flood-opacity="0" result="BackgroundImageFix"/>
<feColorMatrix in="SourceAlpha" type="matrix" values="0 0 0 0 0 0 0 0 0 0 0 0 0 0 0 0 0 0 127 0"/>
<feOffset/>
<feGaussianBlur stdDeviation="1"/>
<feColorMatrix type="matrix" values="0 0 0 0 0 0 0 0 0 0 0 0 0 0 0 0 0 0 0.25 0"/>
<feBlend mode="normal" in2="BackgroundImageFix" result="effect1_dropShadow"/>
<feBlend mode="normal" in="SourceGraphic" in2="effect1_dropShadow" result="shape"/>
</filter>
<radialGradient id="paint0_radial" cx="0" cy="0" r="1" gradientUnits="userSpaceOnUse" gradientTransform="translate(14 14) rotate(90) scale(14)">
<stop stop-color="#304FFE"/>
<stop offset="1" stop-color="#3D5AFE"/>
</radialGradient>
</defs>
</svg>
