<svg width="24" height="25" viewBox="0 0 24 25" fill="none" xmlns="http://www.w3.org/2000/svg">
<path fill-rule="evenodd" clip-rule="evenodd" d="M11.9989 0.5C5.37328 0.5 0 6.0085 0 12.8041C0 18.2401 3.43804 22.8512 8.20651 24.4782C8.8069 24.5915 9.02569 24.2116 9.02569 23.8853C9.02569 23.5937 9.01538 22.8195 9.00948 21.7931C5.67163 22.5363 4.96737 20.1434 4.96737 20.1434C4.4215 18.7219 3.63473 18.3435 3.63473 18.3435C2.5452 17.5807 3.71724 17.5958 3.71724 17.5958C4.9217 17.6826 5.55523 18.8639 5.55523 18.8639C6.62562 20.7439 8.36416 20.2009 9.04779 19.8859C9.15682 19.0913 9.46696 18.549 9.80951 18.2416C7.14497 17.9311 4.34341 16.8752 4.34341 12.1605C4.34341 10.8176 4.8112 9.71861 5.57881 8.85906C5.45505 8.54787 5.04325 7.29631 5.69668 5.6029C5.69668 5.6029 6.7037 5.27207 8.99623 6.86428C9.95316 6.59085 10.9801 6.4549 12.0004 6.44961C13.0199 6.4549 14.0461 6.59085 15.0045 6.86428C17.2956 5.27207 18.3011 5.6029 18.3011 5.6029C18.956 7.29631 18.5442 8.54787 18.4212 8.85906C19.1903 9.71861 19.6544 10.8176 19.6544 12.1605C19.6544 16.8873 16.8484 17.9274 14.1758 18.2318C14.606 18.6117 14.9898 19.3625 14.9898 20.5105C14.9898 22.1549 14.975 23.4819 14.975 23.8853C14.975 24.2146 15.1916 24.5975 15.8001 24.4774C20.5649 22.8467 24 18.2385 24 12.8041C24 6.0085 18.6267 0.5 11.9989 0.5Z" fill="#C7CBD1"/>
</svg>
