<svg width="21" height="25" viewBox="0 0 21 25" fill="none" xmlns="http://www.w3.org/2000/svg">
<g clip-path="url(#clip0)">
<path d="M0 18.4999L10.1538 24.5L20.3077 18.4999V6.49964L10.1538 0.5L0 6.50011V18.4999Z" fill="#C7CBD1"/>
<path d="M9.16269 2.75757L2.2076 6.77321C2.2215 6.89671 2.2215 7.02137 2.2076 7.14487L9.16312 11.1605C9.74959 10.7278 10.5496 10.7278 11.1361 11.1605L18.0916 7.14482C18.0777 7.02132 18.0776 6.89673 18.0916 6.77323L11.1365 2.75759C10.55 3.19032 9.74994 3.19032 9.16343 2.75759L9.16269 2.75757ZM18.7594 8.25406L11.7965 12.3144C11.878 13.0387 11.478 13.7315 10.81 14.0231L10.8178 22.0097C10.9317 22.0594 11.0396 22.1217 11.1396 22.1955L18.0952 18.1799C18.0136 17.4556 18.4137 16.7628 19.0817 16.4712V8.44003C18.9678 8.39031 18.8598 8.32802 18.7598 8.25423L18.7594 8.25406ZM1.54645 8.29869C1.44644 8.37248 1.33852 8.43483 1.22461 8.48455V16.5157C1.8926 16.8073 2.29262 17.5001 2.2111 18.2244L9.1662 22.24C9.2662 22.1662 9.37419 22.1039 9.48809 22.0542V14.023C8.8201 13.7314 8.42008 13.0386 8.5016 12.3143L1.54651 8.29851L1.54645 8.29869Z" fill="white"/>
</g>
<defs>
<clipPath id="clip0">
<rect width="20.3081" height="24" fill="white" transform="translate(0 0.5)"/>
</clipPath>
</defs>
</svg>
