<svg width="48" height="48" viewBox="0 0 41 41" fill="none" xmlns="http://www.w3.org/2000/svg">
<g clip-path="url(#clip0)">
<path fill-rule="evenodd" clip-rule="evenodd" d="M0.324219 27.7148V20.7026C0.324219 9.56468 9.35325 0.535645 20.4911 0.535645C25.9849 0.535645 30.9655 2.73234 34.6027 6.2953L30.3155 8.97423C27.6577 6.74553 24.2311 5.40352 20.4911 5.40352C12.0417 5.40352 5.1921 12.2531 5.1921 20.7026H10.06L0.324219 27.7148ZM10.5931 32.3685C13.2612 34.6346 16.7166 36.0017 20.4914 36.0017C28.9408 36.0017 35.7905 29.1521 35.7905 20.7026H30.9226L40.6579 13.5747L40.6583 20.7026C40.6583 31.8405 31.6293 40.8695 20.4914 40.8695C14.9636 40.8695 9.95529 38.6455 6.31237 35.0434L10.5931 32.3685ZM28.2276 27.396H22.6643L20.4914 24.4606L18.3185 27.396H12.7552L17.7952 20.8183L12.7547 14.0093H17.9703L20.4914 17.2995L23.0125 14.0093H28.2281L23.1876 20.8183L28.2276 27.396Z" fill="#14131D"/>
</g>
<defs>
<clipPath id="clip0">
<rect width="40.334" height="40.334" fill="white" transform="translate(0.324219 0.535645)"/>
</clipPath>
</defs>
</svg>
